<?xml version="1.0" encoding="utf-8"?>
<!-- Generator: Adobe Illustrator 19.2.1, SVG Export Plug-In . SVG Version: 6.00 Build 0)  -->
<svg version="1.1" id="Layer_1" xmlns:sketch="http://www.bohemiancoding.com/sketch/ns"
	 xmlns="http://www.w3.org/2000/svg" xmlns:xlink="http://www.w3.org/1999/xlink" x="0px" y="0px" viewBox="0 0 60 60"
	 style="enable-background:new 0 0 60 60;" xml:space="preserve">
<style type="text/css">
	.st0{fill:#F2F2F2;}
</style>
<title></title>
<desc></desc>
<g id="slices" transform="translate(173.000000, 138.000000)">
</g>
<path class="st0" d="M30,0C13.4,0,0,13.4,0,30s13.4,30,30,30h0c16.6,0,30-13.4,30-30v0C60,13.4,46.6,0,30,0z M24.4,40.8
	c-5.7,0-10.4-4.7-10.4-10.4C14,24.7,18.7,20,24.4,20c2.7,0,5.1,1,7,2.7c-2.2,2.1-2.1,2.2-3,3c-1.1-0.9-2.2-1.5-4-1.5
	c-3.4,0-6.1,2.8-6.1,6.2c0,3.4,2.7,6.2,6.1,6.2c3.4,0,4.7-1.5,5.6-4.1c-1.6,0-5.6,0-5.6,0v-4.1h10C35.1,33.3,33,40.8,24.4,40.8z
	 M46.7,31.1h-3.6v3.7h-2.6v-3.7h-3.7v-2.6h3.7v-3.6h2.6v3.6h3.6V31.1z"/>
</svg>
