<?xml version="1.0" encoding="utf-8"?>
<!-- Generator: Adobe Illustrator 19.2.1, SVG Export Plug-In . SVG Version: 6.00 Build 0)  -->
<svg version="1.1" id="Layer_1" xmlns:sketch="http://www.bohemiancoding.com/sketch/ns"
	 xmlns="http://www.w3.org/2000/svg" xmlns:xlink="http://www.w3.org/1999/xlink" x="0px" y="0px" viewBox="0 0 60 60"
	 style="enable-background:new 0 0 60 60;" xml:space="preserve">
<style type="text/css">
	.st0{fill:#F2F2F2;}
</style>
<title></title>
<desc></desc>
<g id="soical">
	<g id="social" transform="translate(-173.000000, -238.000000)">
		<g id="slices" transform="translate(173.000000, 138.000000)">
		</g>
		<g id="icon" transform="translate(182.000000, 150.000000)">
			<path id="instagram" class="st0" d="M29.9,115.3h4.4v13.3c0,1.5-1.2,2.7-2.7,2.7H10.4c-1.5,0-2.7-1.2-2.7-2.7v-13.3h4.4
				c-0.3,0.8-0.4,1.7-0.4,2.7c0,5.2,4.2,9.3,9.3,9.3s9.3-4.2,9.3-9.3C30.3,117.1,30.2,116.2,29.9,115.3L29.9,115.3z M21,124.7
				c3.7,0,6.7-3,6.7-6.7s-3-6.7-6.7-6.7s-6.7,3-6.7,6.7S17.3,124.7,21,124.7z M26.3,106c0-0.7,0.6-1.3,1.3-1.3H33
				c0.7,0,1.3,0.6,1.3,1.3v5.4c0,0.7-0.6,1.3-1.3,1.3h-5.4c-0.7,0-1.3-0.6-1.3-1.3V106z"/>
		</g>
	</g>
</g>
<path class="st0" d="M30,0L30,0C13.4,0,0,13.4,0,30v0c0,16.6,13.4,30,30,30h0c16.6,0,30-13.4,30-30v0C60,13.4,46.6,0,30,0z M46,40.6
	c0,3-2.4,5.4-5.4,5.4H19.4c-3,0-5.4-2.4-5.4-5.4V19.4c0-3,2.4-5.4,5.4-5.4h21.3c3,0,5.4,2.4,5.4,5.4V40.6z"/>
</svg>
