<?xml version="1.0" encoding="utf-8"?>
<!-- Generator: Adobe Illustrator 19.2.1, SVG Export Plug-In . SVG Version: 6.00 Build 0)  -->
<svg version="1.1" id="Layer_1" xmlns:sketch="http://www.bohemiancoding.com/sketch/ns"
	 xmlns="http://www.w3.org/2000/svg" xmlns:xlink="http://www.w3.org/1999/xlink" x="0px" y="0px" viewBox="0 0 60 60"
	 style="enable-background:new 0 0 60 60;" xml:space="preserve">
<style type="text/css">
	.st0{fill:#F2F2F2;}
</style>
<title></title>
<desc></desc>
<g id="slices" transform="translate(173.000000, 138.000000)">
</g>
<path class="st0" d="M30,0C13.4,0,0,13.4,0,30s13.4,30,30,30s30-13.4,30-30S46.6,0,30,0z M42.8,23.1c0,0.3,0,0.6,0,0.9
	c0,9.2-6.7,19.8-18.9,19.8c-3.7,0-7.2-1.2-10.2-3.2c0.5,0.1,1,0.1,1.6,0.1c3.1,0,6-1.1,8.2-3c-2.9-0.1-5.3-2.1-6.2-4.9
	c0.4,0.1,0.8,0.1,1.2,0.1c0.6,0,1.2-0.1,1.7-0.2c-3-0.7-5.3-3.5-5.3-7c0,0,0-0.1,0-0.1c0.9,0.5,1.9,0.9,3,0.9
	c-1.8-1.3-2.9-3.5-2.9-5.9c0-1.3,0.3-2.5,0.9-3.5c3.3,4.3,8.2,7.2,13.7,7.5c-0.1-0.5-0.2-1.1-0.2-1.6c0-3.9,3-7,6.6-6.9
	c1.9,0,3.6,0.9,4.8,2.3c1.5-0.3,2.9-0.8,4.2-1.6c-0.5,1.6-1.5,3-2.9,3.8c1.3-0.1,2.6-0.5,3.8-1C45.3,21,44.1,22.2,42.8,23.1z"/>
</svg>
