<?xml version="1.0" encoding="utf-8"?>
<!-- Generator: Adobe Illustrator 19.2.1, SVG Export Plug-In . SVG Version: 6.00 Build 0)  -->
<svg version="1.1" id="Layer_1" xmlns:sketch="http://www.bohemiancoding.com/sketch/ns"
	 xmlns="http://www.w3.org/2000/svg" xmlns:xlink="http://www.w3.org/1999/xlink" x="0px" y="0px" viewBox="0 0 60 60"
	 style="enable-background:new 0 0 60 60;" xml:space="preserve">
<style type="text/css">
	.st0{fill:#F2F2F2;}
</style>
<title></title>
<desc></desc>
<g id="slices" transform="translate(173.000000, 138.000000)">
</g>
<path class="st0" d="M30,0L30,0C13.4,0,0,13.4,0,30v0c0,16.6,13.4,30,30,30h0c16.6,0,30-13.4,30-30v0C60,13.4,46.6,0,30,0z
	 M38.1,18.5h-4.3c-2.2,0-2.6,1.4-2.6,2.9v2.9h6.6L36.9,30h-5.7v17.3h-5.7V30h-3.5v-5.7h3.5v-3.5c0-4.7,1.4-8.1,6.5-8.1h6.1V18.5z"/>
</svg>
